<svg width="200" height="200" viewBox="0 0 200 200" fill="none" xmlns="http://www.w3.org/2000/svg">
<circle cx="113.158" cy="7.89474" r="7.89474" fill="#D9D9D9"/>
<circle cx="113.158" cy="113.158" r="7.89474" fill="#D9D9D9"/>
<circle cx="7.89474" cy="7.89474" r="7.89474" fill="#D9D9D9"/>
<circle cx="7.89474" cy="113.158" r="7.89474" fill="#D9D9D9"/>
<circle cx="113.158" cy="34.2105" r="7.89474" fill="#D9D9D9"/>
<circle cx="113.158" cy="139.474" r="7.89474" fill="#D9D9D9"/>
<circle cx="7.89474" cy="34.2105" r="7.89474" fill="#D9D9D9"/>
<circle cx="7.89474" cy="139.474" r="7.89474" fill="#D9D9D9"/>
<circle cx="113.158" cy="60.5263" r="7.89474" fill="#D9D9D9"/>
<circle cx="113.158" cy="165.789" r="7.89474" fill="#D9D9D9"/>
<circle cx="7.89474" cy="60.5263" r="7.89474" fill="#D9D9D9"/>
<circle cx="7.89474" cy="165.789" r="7.89474" fill="#D9D9D9"/>
<circle cx="113.158" cy="86.8421" r="7.89474" fill="#D9D9D9"/>
<circle cx="113.158" cy="192.105" r="7.89474" fill="#D9D9D9"/>
<circle cx="7.89474" cy="86.8421" r="7.89474" fill="#D9D9D9"/>
<circle cx="7.89474" cy="192.105" r="7.89474" fill="#D9D9D9"/>
<circle cx="139.474" cy="7.89474" r="7.89474" fill="#D9D9D9"/>
<circle cx="139.474" cy="113.158" r="7.89474" fill="#D9D9D9"/>
<circle cx="34.2105" cy="7.89474" r="7.89474" fill="#D9D9D9"/>
<circle cx="34.2105" cy="113.158" r="7.89474" fill="#D9D9D9"/>
<circle cx="139.474" cy="34.2105" r="7.89474" fill="#D9D9D9"/>
<circle cx="139.474" cy="139.474" r="7.89474" fill="#D9D9D9"/>
<circle cx="34.2105" cy="34.2105" r="7.89474" fill="#D9D9D9"/>
<circle cx="34.2105" cy="139.474" r="7.89474" fill="#D9D9D9"/>
<circle cx="139.474" cy="60.5263" r="7.89474" fill="#D9D9D9"/>
<circle cx="139.474" cy="165.789" r="7.89474" fill="#D9D9D9"/>
<circle cx="34.2105" cy="60.5263" r="7.89474" fill="#D9D9D9"/>
<circle cx="34.2105" cy="165.789" r="7.89474" fill="#D9D9D9"/>
<circle cx="139.474" cy="86.8421" r="7.89474" fill="#D9D9D9"/>
<circle cx="139.474" cy="192.105" r="7.89474" fill="#D9D9D9"/>
<circle cx="34.2105" cy="86.8421" r="7.89474" fill="#D9D9D9"/>
<circle cx="34.2105" cy="192.105" r="7.89474" fill="#D9D9D9"/>
<circle cx="165.79" cy="7.89474" r="7.89474" fill="#D9D9D9"/>
<circle cx="165.79" cy="113.158" r="7.89474" fill="#D9D9D9"/>
<circle cx="60.5263" cy="7.89474" r="7.89474" fill="#D9D9D9"/>
<circle cx="60.5263" cy="113.158" r="7.89474" fill="#D9D9D9"/>
<circle cx="165.79" cy="34.2105" r="7.89474" fill="#D9D9D9"/>
<circle cx="165.79" cy="139.474" r="7.89474" fill="#D9D9D9"/>
<circle cx="60.5263" cy="34.2105" r="7.89474" fill="#D9D9D9"/>
<circle cx="60.5263" cy="139.474" r="7.89474" fill="#D9D9D9"/>
<circle cx="165.79" cy="60.5263" r="7.89474" fill="#D9D9D9"/>
<circle cx="165.79" cy="165.789" r="7.89474" fill="#D9D9D9"/>
<circle cx="60.5263" cy="60.5263" r="7.89474" fill="#D9D9D9"/>
<circle cx="60.5263" cy="165.789" r="7.89474" fill="#D9D9D9"/>
<circle cx="165.79" cy="86.8421" r="7.89474" fill="#D9D9D9"/>
<circle cx="165.79" cy="192.105" r="7.89474" fill="#D9D9D9"/>
<circle cx="60.5263" cy="86.8421" r="7.89474" fill="#D9D9D9"/>
<circle cx="60.5263" cy="192.105" r="7.89474" fill="#D9D9D9"/>
<circle cx="192.105" cy="7.89474" r="7.89474" fill="#D9D9D9"/>
<circle cx="192.105" cy="113.158" r="7.89474" fill="#D9D9D9"/>
<circle cx="86.8421" cy="7.89474" r="7.89474" fill="#D9D9D9"/>
<circle cx="86.8421" cy="113.158" r="7.89474" fill="#D9D9D9"/>
<circle cx="192.105" cy="34.2105" r="7.89474" fill="#D9D9D9"/>
<circle cx="192.105" cy="139.474" r="7.89474" fill="#D9D9D9"/>
<circle cx="86.8421" cy="34.2105" r="7.89474" fill="#D9D9D9"/>
<circle cx="86.8421" cy="139.474" r="7.89474" fill="#D9D9D9"/>
<circle cx="192.105" cy="60.5263" r="7.89474" fill="#D9D9D9"/>
<circle cx="192.105" cy="165.789" r="7.89474" fill="#D9D9D9"/>
<circle cx="86.8421" cy="60.5263" r="7.89474" fill="#D9D9D9"/>
<circle cx="86.8421" cy="165.789" r="7.89474" fill="#D9D9D9"/>
<circle cx="192.105" cy="86.8421" r="7.89474" fill="#D9D9D9"/>
<circle cx="192.105" cy="192.105" r="7.89474" fill="#D9D9D9"/>
<circle cx="86.8421" cy="86.8421" r="7.89474" fill="#D9D9D9"/>
<circle cx="86.8421" cy="192.105" r="7.89474" fill="#D9D9D9"/>
</svg>
